{
    "asset" : {
        "generator" : "Khronos glTF Blender I/O v1.6.16",
        "version" : "2.0"
    },
    "scene" : 0,
    "scenes" : [
        {
            "name" : "Scene",
            "nodes" : [
                0
            ]
        }
    ],
    "nodes" : [
        {
            "mesh" : 0,
            "name" : "Logo_path",
            "rotation" : [
                0.506951630115509,
                -0.5009189248085022,
                0.49544575810432434,
                0.49660226702690125
            ],
            "scale" : [
                248.4431610107422,
                248.4431610107422,
                248.4431610107422
            ],
            "translation" : [
                -0.01929018273949623,
                0.062378235161304474,
                -2.313709259033203
            ]
        }
    ],
    "materials" : [
        {
            "doubleSided" : true,
            "name" : "SVGMat.001",
            "pbrMetallicRoughness" : {
                "baseColorFactor" : [
                    0.8468732237815857,
                    0.006048833020031452,
                    0.21223075687885284,
                    1
                ],
                "metallicFactor" : 0,
                "roughnessFactor" : 0.4000000059604645
            }
        }
    ],
    "meshes" : [
        {
            "name" : "Logo_path",
            "primitives" : [
                {
                    "attributes" : {
                        "POSITION" : 0,
                        "NORMAL" : 1,
                        "TEXCOORD_0" : 2
                    },
                    "indices" : 3,
                    "material" : 0
                }
            ]
        }
    ],
    "accessors" : [
        {
            "bufferView" : 0,
            "componentType" : 5126,
            "count" : 1918,
            "max" : [
                0.01824706792831421,
                0.001500000013038516,
                -2.8312206268310547e-07
            ],
            "min" : [
                2.2584572434425354e-06,
                -0.001500000013038516,
                -0.018272943794727325
            ],
            "type" : "VEC3"
        },
        {
            "bufferView" : 1,
            "componentType" : 5126,
            "count" : 1918,
            "type" : "VEC3"
        },
        {
            "bufferView" : 2,
            "componentType" : 5126,
            "count" : 1918,
            "type" : "VEC2"
        },
        {
            "bufferView" : 3,
            "componentType" : 5123,
            "count" : 3588,
            "type" : "SCALAR"
        }
    ],
    "bufferViews" : [
        {
            "buffer" : 0,
            "byteLength" : 23016,
            "byteOffset" : 0
        },
        {
            "buffer" : 0,
            "byteLength" : 23016,
            "byteOffset" : 23016
        },
        {
            "buffer" : 0,
            "byteLength" : 15344,
            "byteOffset" : 46032
        },
        {
            "buffer" : 0,
            "byteLength" : 7176,
            "byteOffset" : 61376
        }
    ],
    "buffers" : [
        {
            "byteLength" : 68552,
            "uri" : "data:application/octet-stream;base64,"
        }
    ]
}
